<mxfile host="app.diagrams.net" agent="Mozilla/5.0 (Windows NT 10.0; Win64; x64) AppleWebKit/537.36 (KHTML, like Gecko) Chrome/134.0.0.0 Safari/537.36" version="26.1.2">
  <diagram name="Page-1" id="0AKVcYbRRuuevLQ__fyt">
    <mxGraphModel dx="2593" dy="1393" grid="1" gridSize="13" guides="1" tooltips="1" connect="1" arrows="1" fold="1" page="0" pageScale="1" pageWidth="850" pageHeight="1100" math="0" shadow="0">
      <root>
        <mxCell id="0" />
        <mxCell id="1" parent="0" />
        <mxCell id="V9heyApbQKxrbfZ2U7eS-2" value="Najava" style="swimlane;fontStyle=1;align=center;verticalAlign=top;childLayout=stackLayout;horizontal=1;startSize=26;horizontalStack=0;resizeParent=1;resizeParentMax=0;resizeLast=0;collapsible=1;marginBottom=0;whiteSpace=wrap;html=1;rounded=1;swimlaneLine=1;labelBackgroundColor=none;" parent="1" vertex="1">
          <mxGeometry x="-296" y="-65" width="280" height="164" as="geometry" />
        </mxCell>
        <mxCell id="V9heyApbQKxrbfZ2U7eS-3" value="email&lt;div&gt;&lt;br&gt;&lt;/div&gt;" style="text;strokeColor=none;fillColor=none;align=left;verticalAlign=top;spacingLeft=4;spacingRight=4;overflow=hidden;rotatable=0;points=[[0,0.5],[1,0.5]];portConstraint=eastwest;whiteSpace=wrap;html=1;labelBackgroundColor=none;" parent="V9heyApbQKxrbfZ2U7eS-2" vertex="1">
          <mxGeometry y="26" width="280" height="26" as="geometry" />
        </mxCell>
        <mxCell id="V9heyApbQKxrbfZ2U7eS-4" value="passowrd" style="text;strokeColor=none;fillColor=none;align=left;verticalAlign=top;spacingLeft=4;spacingRight=4;overflow=hidden;rotatable=0;points=[[0,0.5],[1,0.5]];portConstraint=eastwest;whiteSpace=wrap;html=1;labelBackgroundColor=none;" parent="V9heyApbQKxrbfZ2U7eS-2" vertex="1">
          <mxGeometry y="52" width="280" height="26" as="geometry" />
        </mxCell>
        <mxCell id="V9heyApbQKxrbfZ2U7eS-18" value="uloga" style="text;strokeColor=none;fillColor=none;align=left;verticalAlign=top;spacingLeft=4;spacingRight=4;overflow=hidden;rotatable=0;points=[[0,0.5],[1,0.5]];portConstraint=eastwest;whiteSpace=wrap;html=1;labelBackgroundColor=none;" parent="V9heyApbQKxrbfZ2U7eS-2" vertex="1">
          <mxGeometry y="78" width="280" height="26" as="geometry" />
        </mxCell>
        <mxCell id="V9heyApbQKxrbfZ2U7eS-5" value="" style="line;strokeWidth=1;fillColor=none;align=left;verticalAlign=middle;spacingTop=-1;spacingLeft=3;spacingRight=3;rotatable=0;labelPosition=right;points=[];portConstraint=eastwest;labelBackgroundColor=none;" parent="V9heyApbQKxrbfZ2U7eS-2" vertex="1">
          <mxGeometry y="104" width="280" height="8" as="geometry" />
        </mxCell>
        <mxCell id="V9heyApbQKxrbfZ2U7eS-6" value="do: vnesiEmail, vnesiPassword&lt;div&gt;&lt;br&gt;&lt;/div&gt;" style="text;strokeColor=none;fillColor=none;align=left;verticalAlign=top;spacingLeft=4;spacingRight=4;overflow=hidden;rotatable=0;points=[[0,0.5],[1,0.5]];portConstraint=eastwest;whiteSpace=wrap;html=1;labelBackgroundColor=none;" parent="V9heyApbQKxrbfZ2U7eS-2" vertex="1">
          <mxGeometry y="112" width="280" height="26" as="geometry" />
        </mxCell>
        <mxCell id="V9heyApbQKxrbfZ2U7eS-7" value="&lt;div&gt;entry: login&lt;/div&gt;" style="text;strokeColor=none;fillColor=none;align=left;verticalAlign=top;spacingLeft=4;spacingRight=4;overflow=hidden;rotatable=0;points=[[0,0.5],[1,0.5]];portConstraint=eastwest;whiteSpace=wrap;html=1;labelBackgroundColor=none;" parent="V9heyApbQKxrbfZ2U7eS-2" vertex="1">
          <mxGeometry y="138" width="280" height="26" as="geometry" />
        </mxCell>
        <mxCell id="V9heyApbQKxrbfZ2U7eS-8" value="" style="ellipse;html=1;shape=startState;rounded=15;align=center;verticalAlign=top;fontFamily=Helvetica;fontSize=12;fontStyle=1;labelBackgroundColor=none;fillColor=light-dark(#000000, #ffffff);" parent="1" vertex="1">
          <mxGeometry x="-406" y="-34" width="30" height="30" as="geometry" />
        </mxCell>
        <mxCell id="V9heyApbQKxrbfZ2U7eS-9" value="" style="edgeStyle=orthogonalEdgeStyle;html=1;verticalAlign=bottom;endArrow=open;endSize=8;rounded=0;fontFamily=Helvetica;fontSize=12;fontColor=default;fontStyle=1;labelBackgroundColor=none;" parent="1" edge="1">
          <mxGeometry relative="1" as="geometry">
            <mxPoint x="-296" y="-19.5" as="targetPoint" />
            <mxPoint x="-381" y="-19.5" as="sourcePoint" />
          </mxGeometry>
        </mxCell>
        <mxCell id="V9heyApbQKxrbfZ2U7eS-10" value="" style="curved=1;endArrow=classic;html=1;rounded=0;" parent="1" edge="1">
          <mxGeometry width="50" height="50" relative="1" as="geometry">
            <mxPoint x="-316" y="128" as="sourcePoint" />
            <mxPoint x="-292.4999999999991" y="85" as="targetPoint" />
            <Array as="points">
              <mxPoint x="-273" y="88" />
              <mxPoint x="-316" y="128" />
              <mxPoint x="-366" y="168" />
              <mxPoint x="-416" y="128" />
              <mxPoint x="-396" y="88" />
              <mxPoint x="-366" y="78" />
            </Array>
          </mxGeometry>
        </mxCell>
        <mxCell id="V9heyApbQKxrbfZ2U7eS-11" value="pogreshniCredentials" style="text;html=1;align=center;verticalAlign=middle;resizable=0;points=[];autosize=1;strokeColor=none;fillColor=none;rotation=-30;fontSize=14;" parent="1" vertex="1">
          <mxGeometry x="-492" y="71" width="156" height="26" as="geometry" />
        </mxCell>
        <mxCell id="V9heyApbQKxrbfZ2U7eS-12" value="Proverka krediti" style="swimlane;fontStyle=1;align=center;verticalAlign=top;childLayout=stackLayout;horizontal=1;startSize=26;horizontalStack=0;resizeParent=1;resizeParentMax=0;resizeLast=0;collapsible=1;marginBottom=0;whiteSpace=wrap;html=1;rounded=1;swimlaneLine=1;labelBackgroundColor=none;" parent="1" vertex="1">
          <mxGeometry x="-296" y="195" width="280" height="112" as="geometry" />
        </mxCell>
        <mxCell id="V9heyApbQKxrbfZ2U7eS-13" value="&lt;div&gt;krediti&lt;/div&gt;" style="text;strokeColor=none;fillColor=none;align=left;verticalAlign=top;spacingLeft=4;spacingRight=4;overflow=hidden;rotatable=0;points=[[0,0.5],[1,0.5]];portConstraint=eastwest;whiteSpace=wrap;html=1;labelBackgroundColor=none;" parent="V9heyApbQKxrbfZ2U7eS-12" vertex="1">
          <mxGeometry y="26" width="280" height="26" as="geometry" />
        </mxCell>
        <mxCell id="V9heyApbQKxrbfZ2U7eS-15" value="" style="line;strokeWidth=1;fillColor=none;align=left;verticalAlign=middle;spacingTop=-1;spacingLeft=3;spacingRight=3;rotatable=0;labelPosition=right;points=[];portConstraint=eastwest;labelBackgroundColor=none;" parent="V9heyApbQKxrbfZ2U7eS-12" vertex="1">
          <mxGeometry y="52" width="280" height="8" as="geometry" />
        </mxCell>
        <mxCell id="V9heyApbQKxrbfZ2U7eS-16" value="do: proveriKrediti&lt;div&gt;&lt;br&gt;&lt;/div&gt;" style="text;strokeColor=none;fillColor=none;align=left;verticalAlign=top;spacingLeft=4;spacingRight=4;overflow=hidden;rotatable=0;points=[[0,0.5],[1,0.5]];portConstraint=eastwest;whiteSpace=wrap;html=1;labelBackgroundColor=none;" parent="V9heyApbQKxrbfZ2U7eS-12" vertex="1">
          <mxGeometry y="60" width="280" height="26" as="geometry" />
        </mxCell>
        <mxCell id="V9heyApbQKxrbfZ2U7eS-17" value="&lt;div&gt;entry: procitaj krediti&amp;nbsp;&lt;/div&gt;&lt;div&gt;&lt;br&gt;&lt;/div&gt;" style="text;strokeColor=none;fillColor=none;align=left;verticalAlign=top;spacingLeft=4;spacingRight=4;overflow=hidden;rotatable=0;points=[[0,0.5],[1,0.5]];portConstraint=eastwest;whiteSpace=wrap;html=1;labelBackgroundColor=none;" parent="V9heyApbQKxrbfZ2U7eS-12" vertex="1">
          <mxGeometry y="86" width="280" height="26" as="geometry" />
        </mxCell>
        <mxCell id="V9heyApbQKxrbfZ2U7eS-21" value="uloga = student" style="text;html=1;align=center;verticalAlign=middle;resizable=0;points=[];autosize=1;strokeColor=none;fillColor=none;fontSize=14;" parent="1" vertex="1">
          <mxGeometry x="-188" y="124" width="130" height="26" as="geometry" />
        </mxCell>
        <mxCell id="V9heyApbQKxrbfZ2U7eS-22" value="" style="ellipse;html=1;shape=endState;fillColor=#000000;strokeColor=default;" parent="1" vertex="1">
          <mxGeometry x="-429" y="338" width="30" height="30" as="geometry" />
        </mxCell>
        <mxCell id="V9heyApbQKxrbfZ2U7eS-23" value="" style="edgeStyle=orthogonalEdgeStyle;html=1;verticalAlign=bottom;endArrow=open;endSize=8;rounded=0;fontFamily=Helvetica;fontSize=12;fontColor=default;fontStyle=1;labelBackgroundColor=none;entryX=0.407;entryY=0;entryDx=0;entryDy=0;entryPerimeter=0;" parent="1" target="V9heyApbQKxrbfZ2U7eS-12" edge="1">
          <mxGeometry relative="1" as="geometry">
            <mxPoint x="-182" y="169" as="targetPoint" />
            <mxPoint x="-182" y="100" as="sourcePoint" />
          </mxGeometry>
        </mxCell>
        <mxCell id="V9heyApbQKxrbfZ2U7eS-25" value="" style="edgeStyle=orthogonalEdgeStyle;html=1;verticalAlign=bottom;endArrow=open;endSize=8;rounded=0;fontFamily=Helvetica;fontSize=12;fontColor=default;fontStyle=1;labelBackgroundColor=none;entryX=1;entryY=0.5;entryDx=0;entryDy=0;exitX=0;exitY=0.5;exitDx=0;exitDy=0;" parent="1" source="V9heyApbQKxrbfZ2U7eS-17" target="V9heyApbQKxrbfZ2U7eS-22" edge="1">
          <mxGeometry relative="1" as="geometry">
            <mxPoint x="-356" y="351" as="targetPoint" />
            <mxPoint x="-356" y="247" as="sourcePoint" />
          </mxGeometry>
        </mxCell>
        <mxCell id="V9heyApbQKxrbfZ2U7eS-26" value="krediti &amp;lt; 207" style="text;html=1;align=center;verticalAlign=middle;resizable=0;points=[];autosize=1;strokeColor=none;fillColor=none;fontSize=14;rotation=-30;" parent="1" vertex="1">
          <mxGeometry x="-422" y="275" width="104" height="26" as="geometry" />
        </mxCell>
        <mxCell id="V9heyApbQKxrbfZ2U7eS-27" value="izbor profesor" style="swimlane;fontStyle=1;align=center;verticalAlign=top;childLayout=stackLayout;horizontal=1;startSize=26;horizontalStack=0;resizeParent=1;resizeParentMax=0;resizeLast=0;collapsible=1;marginBottom=0;whiteSpace=wrap;html=1;rounded=1;swimlaneLine=1;labelBackgroundColor=none;" parent="1" vertex="1">
          <mxGeometry x="91" y="169" width="280" height="112" as="geometry" />
        </mxCell>
        <mxCell id="V9heyApbQKxrbfZ2U7eS-29" value="&amp;nbsp; &amp;nbsp; &amp;nbsp; &amp;nbsp; &amp;nbsp; &amp;nbsp; &amp;nbsp; &amp;nbsp; &amp;nbsp; &amp;nbsp; &amp;nbsp; &amp;nbsp; &amp;nbsp; &amp;nbsp; &amp;nbsp; &amp;nbsp; &amp;nbsp; &amp;nbsp; &amp;nbsp; &amp;nbsp; &amp;nbsp; &amp;nbsp; &amp;nbsp; &amp;nbsp; &amp;nbsp; &amp;nbsp; &amp;nbsp; &amp;nbsp;" style="text;strokeColor=none;fillColor=none;align=left;verticalAlign=top;spacingLeft=4;spacingRight=4;overflow=hidden;rotatable=0;points=[[0,0.5],[1,0.5]];portConstraint=eastwest;whiteSpace=wrap;html=1;labelBackgroundColor=none;" parent="V9heyApbQKxrbfZ2U7eS-27" vertex="1">
          <mxGeometry y="26" width="280" height="26" as="geometry" />
        </mxCell>
        <mxCell id="V9heyApbQKxrbfZ2U7eS-31" value="" style="line;strokeWidth=1;fillColor=none;align=left;verticalAlign=middle;spacingTop=-1;spacingLeft=3;spacingRight=3;rotatable=0;labelPosition=right;points=[];portConstraint=eastwest;labelBackgroundColor=none;" parent="V9heyApbQKxrbfZ2U7eS-27" vertex="1">
          <mxGeometry y="52" width="280" height="8" as="geometry" />
        </mxCell>
        <mxCell id="V9heyApbQKxrbfZ2U7eS-32" value="do: izberiProfesor&lt;div&gt;&lt;br&gt;&lt;/div&gt;" style="text;strokeColor=none;fillColor=none;align=left;verticalAlign=top;spacingLeft=4;spacingRight=4;overflow=hidden;rotatable=0;points=[[0,0.5],[1,0.5]];portConstraint=eastwest;whiteSpace=wrap;html=1;labelBackgroundColor=none;" parent="V9heyApbQKxrbfZ2U7eS-27" vertex="1">
          <mxGeometry y="60" width="280" height="26" as="geometry" />
        </mxCell>
        <mxCell id="V9heyApbQKxrbfZ2U7eS-33" value="&lt;div&gt;entry: prikazi lista profesori&lt;/div&gt;" style="text;strokeColor=none;fillColor=none;align=left;verticalAlign=top;spacingLeft=4;spacingRight=4;overflow=hidden;rotatable=0;points=[[0,0.5],[1,0.5]];portConstraint=eastwest;whiteSpace=wrap;html=1;labelBackgroundColor=none;" parent="V9heyApbQKxrbfZ2U7eS-27" vertex="1">
          <mxGeometry y="86" width="280" height="26" as="geometry" />
        </mxCell>
        <mxCell id="V9heyApbQKxrbfZ2U7eS-35" value="" style="edgeStyle=orthogonalEdgeStyle;html=1;verticalAlign=bottom;endArrow=open;endSize=8;rounded=0;fontFamily=Helvetica;fontSize=12;fontColor=default;fontStyle=1;labelBackgroundColor=none;" parent="1" edge="1">
          <mxGeometry relative="1" as="geometry">
            <mxPoint x="91" y="225" as="targetPoint" />
            <mxPoint x="-16" y="224.5" as="sourcePoint" />
          </mxGeometry>
        </mxCell>
        <mxCell id="V9heyApbQKxrbfZ2U7eS-37" value="izbor tema" style="swimlane;fontStyle=1;align=center;verticalAlign=top;childLayout=stackLayout;horizontal=1;startSize=26;horizontalStack=0;resizeParent=1;resizeParentMax=0;resizeLast=0;collapsible=1;marginBottom=0;whiteSpace=wrap;html=1;rounded=1;swimlaneLine=1;labelBackgroundColor=none;" parent="1" vertex="1">
          <mxGeometry x="481" y="156" width="280" height="164" as="geometry" />
        </mxCell>
        <mxCell id="V9heyApbQKxrbfZ2U7eS-38" value="&lt;div&gt;&amp;nbsp; &amp;nbsp; &amp;nbsp; &amp;nbsp; &amp;nbsp; &amp;nbsp; &amp;nbsp; &amp;nbsp; &amp;nbsp; &amp;nbsp; &amp;nbsp; &amp;nbsp; &amp;nbsp; &amp;nbsp; &amp;nbsp; &amp;nbsp; &amp;nbsp; &amp;nbsp; &amp;nbsp;&lt;/div&gt;" style="text;strokeColor=none;fillColor=none;align=left;verticalAlign=top;spacingLeft=4;spacingRight=4;overflow=hidden;rotatable=0;points=[[0,0.5],[1,0.5]];portConstraint=eastwest;whiteSpace=wrap;html=1;labelBackgroundColor=none;" parent="V9heyApbQKxrbfZ2U7eS-37" vertex="1">
          <mxGeometry y="26" width="280" height="26" as="geometry" />
        </mxCell>
        <mxCell id="V9heyApbQKxrbfZ2U7eS-39" value="&amp;nbsp; &amp;nbsp; &amp;nbsp; &amp;nbsp; &amp;nbsp; &amp;nbsp; &amp;nbsp; &amp;nbsp; &amp;nbsp; &amp;nbsp; &amp;nbsp; &amp;nbsp; &amp;nbsp; &amp;nbsp; &amp;nbsp; &amp;nbsp; &amp;nbsp; &amp;nbsp;&amp;nbsp;" style="text;strokeColor=none;fillColor=none;align=left;verticalAlign=top;spacingLeft=4;spacingRight=4;overflow=hidden;rotatable=0;points=[[0,0.5],[1,0.5]];portConstraint=eastwest;whiteSpace=wrap;html=1;labelBackgroundColor=none;" parent="V9heyApbQKxrbfZ2U7eS-37" vertex="1">
          <mxGeometry y="52" width="280" height="26" as="geometry" />
        </mxCell>
        <mxCell id="V9heyApbQKxrbfZ2U7eS-43" value="&amp;nbsp; &amp;nbsp; &amp;nbsp; &amp;nbsp; &amp;nbsp; &amp;nbsp; &amp;nbsp; &amp;nbsp; &amp;nbsp; &amp;nbsp; &amp;nbsp; &amp;nbsp; &amp;nbsp; &amp;nbsp; &amp;nbsp;" style="text;strokeColor=none;fillColor=none;align=left;verticalAlign=top;spacingLeft=4;spacingRight=4;overflow=hidden;rotatable=0;points=[[0,0.5],[1,0.5]];portConstraint=eastwest;whiteSpace=wrap;html=1;labelBackgroundColor=none;" parent="V9heyApbQKxrbfZ2U7eS-37" vertex="1">
          <mxGeometry y="78" width="280" height="26" as="geometry" />
        </mxCell>
        <mxCell id="V9heyApbQKxrbfZ2U7eS-40" value="" style="line;strokeWidth=1;fillColor=none;align=left;verticalAlign=middle;spacingTop=-1;spacingLeft=3;spacingRight=3;rotatable=0;labelPosition=right;points=[];portConstraint=eastwest;labelBackgroundColor=none;" parent="V9heyApbQKxrbfZ2U7eS-37" vertex="1">
          <mxGeometry y="104" width="280" height="8" as="geometry" />
        </mxCell>
        <mxCell id="V9heyApbQKxrbfZ2U7eS-41" value="do: izberiTema&lt;div&gt;&lt;br&gt;&lt;/div&gt;" style="text;strokeColor=none;fillColor=none;align=left;verticalAlign=top;spacingLeft=4;spacingRight=4;overflow=hidden;rotatable=0;points=[[0,0.5],[1,0.5]];portConstraint=eastwest;whiteSpace=wrap;html=1;labelBackgroundColor=none;" parent="V9heyApbQKxrbfZ2U7eS-37" vertex="1">
          <mxGeometry y="112" width="280" height="26" as="geometry" />
        </mxCell>
        <mxCell id="V9heyApbQKxrbfZ2U7eS-42" value="&lt;div&gt;entry: prikazi lista temi&lt;/div&gt;" style="text;strokeColor=none;fillColor=none;align=left;verticalAlign=top;spacingLeft=4;spacingRight=4;overflow=hidden;rotatable=0;points=[[0,0.5],[1,0.5]];portConstraint=eastwest;whiteSpace=wrap;html=1;labelBackgroundColor=none;" parent="V9heyApbQKxrbfZ2U7eS-37" vertex="1">
          <mxGeometry y="138" width="280" height="26" as="geometry" />
        </mxCell>
        <mxCell id="V9heyApbQKxrbfZ2U7eS-44" value="" style="edgeStyle=orthogonalEdgeStyle;html=1;verticalAlign=bottom;endArrow=open;endSize=8;rounded=0;fontFamily=Helvetica;fontSize=12;fontColor=default;fontStyle=1;labelBackgroundColor=none;" parent="1" edge="1">
          <mxGeometry relative="1" as="geometry">
            <mxPoint x="478" y="221.5" as="targetPoint" />
            <mxPoint x="371" y="221" as="sourcePoint" />
          </mxGeometry>
        </mxCell>
        <mxCell id="V9heyApbQKxrbfZ2U7eS-45" value="" style="edgeStyle=orthogonalEdgeStyle;html=1;verticalAlign=bottom;endArrow=open;endSize=8;rounded=0;fontFamily=Helvetica;fontSize=12;fontColor=default;fontStyle=1;labelBackgroundColor=none;" parent="1" edge="1">
          <mxGeometry relative="1" as="geometry">
            <mxPoint x="371" y="268" as="targetPoint" />
            <mxPoint x="475" y="268" as="sourcePoint" />
          </mxGeometry>
        </mxCell>
        <mxCell id="V9heyApbQKxrbfZ2U7eS-46" value="nema slobodna&amp;nbsp;&lt;br&gt;tema" style="text;html=1;align=center;verticalAlign=middle;resizable=0;points=[];autosize=1;strokeColor=none;fillColor=none;fontSize=14;" parent="1" vertex="1">
          <mxGeometry x="364" y="268" width="130" height="52" as="geometry" />
        </mxCell>
        <mxCell id="V9heyApbQKxrbfZ2U7eS-47" value="biraj tema" style="text;html=1;align=center;verticalAlign=middle;resizable=0;points=[];autosize=1;strokeColor=none;fillColor=none;fontSize=14;" parent="1" vertex="1">
          <mxGeometry x="384" y="189" width="91" height="26" as="geometry" />
        </mxCell>
        <mxCell id="V9heyApbQKxrbfZ2U7eS-48" value="obrasci" style="swimlane;fontStyle=1;align=center;verticalAlign=top;childLayout=stackLayout;horizontal=1;startSize=26;horizontalStack=0;resizeParent=1;resizeParentMax=0;resizeLast=0;collapsible=1;marginBottom=0;whiteSpace=wrap;html=1;rounded=1;swimlaneLine=1;labelBackgroundColor=none;" parent="1" vertex="1">
          <mxGeometry x="481" y="416" width="280" height="138" as="geometry" />
        </mxCell>
        <mxCell id="V9heyApbQKxrbfZ2U7eS-50" value="&amp;nbsp; &amp;nbsp; &amp;nbsp; &amp;nbsp; &amp;nbsp; &amp;nbsp; &amp;nbsp; &amp;nbsp; &amp;nbsp; &amp;nbsp; &amp;nbsp; &amp;nbsp; &amp;nbsp; &amp;nbsp; &amp;nbsp; &amp;nbsp;&amp;nbsp;" style="text;strokeColor=none;fillColor=none;align=left;verticalAlign=top;spacingLeft=4;spacingRight=4;overflow=hidden;rotatable=0;points=[[0,0.5],[1,0.5]];portConstraint=eastwest;whiteSpace=wrap;html=1;labelBackgroundColor=none;" parent="V9heyApbQKxrbfZ2U7eS-48" vertex="1">
          <mxGeometry y="26" width="280" height="26" as="geometry" />
        </mxCell>
        <mxCell id="V9heyApbQKxrbfZ2U7eS-51" value="&amp;nbsp; &amp;nbsp; &amp;nbsp; &amp;nbsp; &amp;nbsp; &amp;nbsp; &amp;nbsp; &amp;nbsp; &amp;nbsp; &amp;nbsp; &amp;nbsp; &amp;nbsp; &amp;nbsp; &amp;nbsp; &amp;nbsp;&amp;nbsp;" style="text;strokeColor=none;fillColor=none;align=left;verticalAlign=top;spacingLeft=4;spacingRight=4;overflow=hidden;rotatable=0;points=[[0,0.5],[1,0.5]];portConstraint=eastwest;whiteSpace=wrap;html=1;labelBackgroundColor=none;" parent="V9heyApbQKxrbfZ2U7eS-48" vertex="1">
          <mxGeometry y="52" width="280" height="26" as="geometry" />
        </mxCell>
        <mxCell id="V9heyApbQKxrbfZ2U7eS-52" value="" style="line;strokeWidth=1;fillColor=none;align=left;verticalAlign=middle;spacingTop=-1;spacingLeft=3;spacingRight=3;rotatable=0;labelPosition=right;points=[];portConstraint=eastwest;labelBackgroundColor=none;" parent="V9heyApbQKxrbfZ2U7eS-48" vertex="1">
          <mxGeometry y="78" width="280" height="8" as="geometry" />
        </mxCell>
        <mxCell id="V9heyApbQKxrbfZ2U7eS-53" value="do: popolniObrasci, pratiDoSluzhba&lt;div&gt;&lt;br&gt;&lt;/div&gt;" style="text;strokeColor=none;fillColor=none;align=left;verticalAlign=top;spacingLeft=4;spacingRight=4;overflow=hidden;rotatable=0;points=[[0,0.5],[1,0.5]];portConstraint=eastwest;whiteSpace=wrap;html=1;labelBackgroundColor=none;" parent="V9heyApbQKxrbfZ2U7eS-48" vertex="1">
          <mxGeometry y="86" width="280" height="26" as="geometry" />
        </mxCell>
        <mxCell id="V9heyApbQKxrbfZ2U7eS-54" value="&lt;div&gt;entry: genereirajObrasci&lt;/div&gt;" style="text;strokeColor=none;fillColor=none;align=left;verticalAlign=top;spacingLeft=4;spacingRight=4;overflow=hidden;rotatable=0;points=[[0,0.5],[1,0.5]];portConstraint=eastwest;whiteSpace=wrap;html=1;labelBackgroundColor=none;" parent="V9heyApbQKxrbfZ2U7eS-48" vertex="1">
          <mxGeometry y="112" width="280" height="26" as="geometry" />
        </mxCell>
        <mxCell id="V9heyApbQKxrbfZ2U7eS-55" value="" style="edgeStyle=orthogonalEdgeStyle;html=1;verticalAlign=bottom;endArrow=open;endSize=8;rounded=0;fontFamily=Helvetica;fontSize=12;fontColor=default;fontStyle=1;labelBackgroundColor=none;" parent="1" edge="1">
          <mxGeometry relative="1" as="geometry">
            <mxPoint x="620.5" y="411" as="targetPoint" />
            <mxPoint x="620.5" y="320" as="sourcePoint" />
          </mxGeometry>
        </mxCell>
        <mxCell id="V9heyApbQKxrbfZ2U7eS-56" value="proverka obrasci" style="swimlane;fontStyle=1;align=center;verticalAlign=top;childLayout=stackLayout;horizontal=1;startSize=26;horizontalStack=0;resizeParent=1;resizeParentMax=0;resizeLast=0;collapsible=1;marginBottom=0;whiteSpace=wrap;html=1;rounded=1;swimlaneLine=1;labelBackgroundColor=none;" parent="1" vertex="1">
          <mxGeometry x="475" y="611" width="280" height="138" as="geometry" />
        </mxCell>
        <mxCell id="V9heyApbQKxrbfZ2U7eS-57" value="&amp;nbsp; &amp;nbsp; &amp;nbsp; &amp;nbsp; &amp;nbsp; &amp;nbsp; &amp;nbsp; &amp;nbsp; &amp;nbsp; &amp;nbsp; &amp;nbsp; &amp;nbsp; &amp;nbsp; &amp;nbsp; &amp;nbsp; &amp;nbsp; &amp;nbsp; &amp;nbsp; &amp;nbsp; &amp;nbsp; &amp;nbsp; &amp;nbsp; &amp;nbsp;&amp;nbsp;" style="text;strokeColor=none;fillColor=none;align=left;verticalAlign=top;spacingLeft=4;spacingRight=4;overflow=hidden;rotatable=0;points=[[0,0.5],[1,0.5]];portConstraint=eastwest;whiteSpace=wrap;html=1;labelBackgroundColor=none;" parent="V9heyApbQKxrbfZ2U7eS-56" vertex="1">
          <mxGeometry y="26" width="280" height="26" as="geometry" />
        </mxCell>
        <mxCell id="V9heyApbQKxrbfZ2U7eS-58" value="&amp;nbsp; &amp;nbsp; &amp;nbsp; &amp;nbsp; &amp;nbsp; &amp;nbsp; &amp;nbsp; &amp;nbsp; &amp;nbsp; &amp;nbsp; &amp;nbsp; &amp;nbsp; &amp;nbsp; &amp;nbsp; &amp;nbsp; &amp;nbsp;" style="text;strokeColor=none;fillColor=none;align=left;verticalAlign=top;spacingLeft=4;spacingRight=4;overflow=hidden;rotatable=0;points=[[0,0.5],[1,0.5]];portConstraint=eastwest;whiteSpace=wrap;html=1;labelBackgroundColor=none;" parent="V9heyApbQKxrbfZ2U7eS-56" vertex="1">
          <mxGeometry y="52" width="280" height="26" as="geometry" />
        </mxCell>
        <mxCell id="V9heyApbQKxrbfZ2U7eS-59" value="" style="line;strokeWidth=1;fillColor=none;align=left;verticalAlign=middle;spacingTop=-1;spacingLeft=3;spacingRight=3;rotatable=0;labelPosition=right;points=[];portConstraint=eastwest;labelBackgroundColor=none;" parent="V9heyApbQKxrbfZ2U7eS-56" vertex="1">
          <mxGeometry y="78" width="280" height="8" as="geometry" />
        </mxCell>
        <mxCell id="V9heyApbQKxrbfZ2U7eS-60" value="do: poroveriObrasci, ispratiIzvestuvanje&lt;div&gt;&lt;br&gt;&lt;/div&gt;" style="text;strokeColor=none;fillColor=none;align=left;verticalAlign=top;spacingLeft=4;spacingRight=4;overflow=hidden;rotatable=0;points=[[0,0.5],[1,0.5]];portConstraint=eastwest;whiteSpace=wrap;html=1;labelBackgroundColor=none;" parent="V9heyApbQKxrbfZ2U7eS-56" vertex="1">
          <mxGeometry y="86" width="280" height="26" as="geometry" />
        </mxCell>
        <mxCell id="V9heyApbQKxrbfZ2U7eS-61" value="&lt;div&gt;entry: prikaziObrasci&lt;/div&gt;" style="text;strokeColor=none;fillColor=none;align=left;verticalAlign=top;spacingLeft=4;spacingRight=4;overflow=hidden;rotatable=0;points=[[0,0.5],[1,0.5]];portConstraint=eastwest;whiteSpace=wrap;html=1;labelBackgroundColor=none;" parent="V9heyApbQKxrbfZ2U7eS-56" vertex="1">
          <mxGeometry y="112" width="280" height="26" as="geometry" />
        </mxCell>
        <mxCell id="V9heyApbQKxrbfZ2U7eS-62" value="" style="edgeStyle=orthogonalEdgeStyle;html=1;verticalAlign=bottom;endArrow=open;endSize=8;rounded=0;fontFamily=Helvetica;fontSize=12;fontColor=default;fontStyle=1;labelBackgroundColor=none;" parent="1" edge="1">
          <mxGeometry relative="1" as="geometry">
            <mxPoint x="614.5" y="554" as="targetPoint" />
            <mxPoint x="614.5" y="606" as="sourcePoint" />
          </mxGeometry>
        </mxCell>
        <mxCell id="V9heyApbQKxrbfZ2U7eS-63" value="popolni obrasci" style="text;html=1;align=center;verticalAlign=middle;resizable=0;points=[];autosize=1;strokeColor=none;fillColor=none;fontSize=16;" parent="1" vertex="1">
          <mxGeometry x="611" y="347" width="130" height="39" as="geometry" />
        </mxCell>
        <mxCell id="V9heyApbQKxrbfZ2U7eS-64" value="nevalidni obrasci" style="text;html=1;align=center;verticalAlign=middle;resizable=0;points=[];autosize=1;strokeColor=none;fillColor=none;fontSize=16;" parent="1" vertex="1">
          <mxGeometry x="604.5" y="568" width="143" height="39" as="geometry" />
        </mxCell>
        <mxCell id="V9heyApbQKxrbfZ2U7eS-66" value="" style="curved=1;endArrow=classic;html=1;rounded=0;fontSize=12;startSize=8;endSize=8;exitX=0.907;exitY=1.115;exitDx=0;exitDy=0;exitPerimeter=0;entryX=0;entryY=0.5;entryDx=0;entryDy=0;" parent="1" source="V9heyApbQKxrbfZ2U7eS-7" target="V9heyApbQKxrbfZ2U7eS-58" edge="1">
          <mxGeometry width="50" height="50" relative="1" as="geometry">
            <mxPoint x="52" y="351" as="sourcePoint" />
            <mxPoint x="325" y="390" as="targetPoint" />
            <Array as="points">
              <mxPoint x="193" y="453" />
              <mxPoint x="143" y="403" />
            </Array>
          </mxGeometry>
        </mxCell>
        <mxCell id="V9heyApbQKxrbfZ2U7eS-67" value="uloga = sluzhba" style="text;html=1;align=center;verticalAlign=middle;resizable=0;points=[];autosize=1;strokeColor=none;fillColor=none;fontSize=14;" parent="1" vertex="1">
          <mxGeometry x="72" y="462" width="130" height="26" as="geometry" />
        </mxCell>
        <mxCell id="V9heyApbQKxrbfZ2U7eS-68" value="krediti &amp;gt;= 207" style="text;html=1;align=center;verticalAlign=middle;resizable=0;points=[];autosize=1;strokeColor=none;fillColor=none;fontSize=14;" parent="1" vertex="1">
          <mxGeometry x="-26" y="249" width="117" height="26" as="geometry" />
        </mxCell>
        <mxCell id="V9heyApbQKxrbfZ2U7eS-69" value="izberi uloga" style="swimlane;fontStyle=1;align=center;verticalAlign=top;childLayout=stackLayout;horizontal=1;startSize=26;horizontalStack=0;resizeParent=1;resizeParentMax=0;resizeLast=0;collapsible=1;marginBottom=0;whiteSpace=wrap;html=1;rounded=1;swimlaneLine=1;labelBackgroundColor=none;" parent="1" vertex="1">
          <mxGeometry x="91" y="-93" width="280" height="112" as="geometry" />
        </mxCell>
        <mxCell id="V9heyApbQKxrbfZ2U7eS-72" value="ulogaProf" style="text;strokeColor=none;fillColor=none;align=left;verticalAlign=top;spacingLeft=4;spacingRight=4;overflow=hidden;rotatable=0;points=[[0,0.5],[1,0.5]];portConstraint=eastwest;whiteSpace=wrap;html=1;labelBackgroundColor=none;" parent="V9heyApbQKxrbfZ2U7eS-69" vertex="1">
          <mxGeometry y="26" width="280" height="26" as="geometry" />
        </mxCell>
        <mxCell id="V9heyApbQKxrbfZ2U7eS-73" value="" style="line;strokeWidth=1;fillColor=none;align=left;verticalAlign=middle;spacingTop=-1;spacingLeft=3;spacingRight=3;rotatable=0;labelPosition=right;points=[];portConstraint=eastwest;labelBackgroundColor=none;" parent="V9heyApbQKxrbfZ2U7eS-69" vertex="1">
          <mxGeometry y="52" width="280" height="8" as="geometry" />
        </mxCell>
        <mxCell id="V9heyApbQKxrbfZ2U7eS-74" value="do: vnesiEmail, vnesiPassword&lt;div&gt;&lt;br&gt;&lt;/div&gt;" style="text;strokeColor=none;fillColor=none;align=left;verticalAlign=top;spacingLeft=4;spacingRight=4;overflow=hidden;rotatable=0;points=[[0,0.5],[1,0.5]];portConstraint=eastwest;whiteSpace=wrap;html=1;labelBackgroundColor=none;" parent="V9heyApbQKxrbfZ2U7eS-69" vertex="1">
          <mxGeometry y="60" width="280" height="26" as="geometry" />
        </mxCell>
        <mxCell id="V9heyApbQKxrbfZ2U7eS-75" value="&lt;div&gt;entry: login&lt;/div&gt;" style="text;strokeColor=none;fillColor=none;align=left;verticalAlign=top;spacingLeft=4;spacingRight=4;overflow=hidden;rotatable=0;points=[[0,0.5],[1,0.5]];portConstraint=eastwest;whiteSpace=wrap;html=1;labelBackgroundColor=none;" parent="V9heyApbQKxrbfZ2U7eS-69" vertex="1">
          <mxGeometry y="86" width="280" height="26" as="geometry" />
        </mxCell>
        <mxCell id="V9heyApbQKxrbfZ2U7eS-76" value="" style="edgeStyle=orthogonalEdgeStyle;html=1;verticalAlign=bottom;endArrow=open;endSize=8;rounded=0;fontFamily=Helvetica;fontSize=12;fontColor=default;fontStyle=1;labelBackgroundColor=none;" parent="1" edge="1">
          <mxGeometry relative="1" as="geometry">
            <mxPoint x="91" y="-19.119999999999994" as="targetPoint" />
            <mxPoint x="-16" y="-19.619999999999994" as="sourcePoint" />
          </mxGeometry>
        </mxCell>
        <mxCell id="V9heyApbQKxrbfZ2U7eS-77" value="uloga = profesor" style="text;html=1;align=center;verticalAlign=middle;resizable=0;points=[];autosize=1;strokeColor=none;fillColor=none;fontSize=14;" parent="1" vertex="1">
          <mxGeometry x="-26" y="-13" width="130" height="26" as="geometry" />
        </mxCell>
        <mxCell id="V9heyApbQKxrbfZ2U7eS-78" value="komisija" style="swimlane;fontStyle=1;align=center;verticalAlign=top;childLayout=stackLayout;horizontal=1;startSize=26;horizontalStack=0;resizeParent=1;resizeParentMax=0;resizeLast=0;collapsible=1;marginBottom=0;whiteSpace=wrap;html=1;rounded=1;swimlaneLine=1;labelBackgroundColor=none;" parent="1" vertex="1">
          <mxGeometry x="494" y="-4" width="280" height="112" as="geometry" />
        </mxCell>
        <mxCell id="V9heyApbQKxrbfZ2U7eS-79" value="&amp;nbsp; &amp;nbsp; &amp;nbsp; &amp;nbsp; &amp;nbsp; &amp;nbsp; &amp;nbsp; &amp;nbsp; &amp;nbsp; &amp;nbsp; &amp;nbsp; &amp;nbsp; &amp;nbsp; &amp;nbsp; &amp;nbsp; &amp;nbsp; &amp;nbsp; &amp;nbsp;" style="text;strokeColor=none;fillColor=none;align=left;verticalAlign=top;spacingLeft=4;spacingRight=4;overflow=hidden;rotatable=0;points=[[0,0.5],[1,0.5]];portConstraint=eastwest;whiteSpace=wrap;html=1;labelBackgroundColor=none;" parent="V9heyApbQKxrbfZ2U7eS-78" vertex="1">
          <mxGeometry y="26" width="280" height="26" as="geometry" />
        </mxCell>
        <mxCell id="V9heyApbQKxrbfZ2U7eS-80" value="" style="line;strokeWidth=1;fillColor=none;align=left;verticalAlign=middle;spacingTop=-1;spacingLeft=3;spacingRight=3;rotatable=0;labelPosition=right;points=[];portConstraint=eastwest;labelBackgroundColor=none;" parent="V9heyApbQKxrbfZ2U7eS-78" vertex="1">
          <mxGeometry y="52" width="280" height="8" as="geometry" />
        </mxCell>
        <mxCell id="V9heyApbQKxrbfZ2U7eS-81" value="do: vidiDatum, staviOcena" style="text;strokeColor=none;fillColor=none;align=left;verticalAlign=top;spacingLeft=4;spacingRight=4;overflow=hidden;rotatable=0;points=[[0,0.5],[1,0.5]];portConstraint=eastwest;whiteSpace=wrap;html=1;labelBackgroundColor=none;" parent="V9heyApbQKxrbfZ2U7eS-78" vertex="1">
          <mxGeometry y="60" width="280" height="26" as="geometry" />
        </mxCell>
        <mxCell id="V9heyApbQKxrbfZ2U7eS-82" value="&lt;div&gt;entry: login&lt;/div&gt;" style="text;strokeColor=none;fillColor=none;align=left;verticalAlign=top;spacingLeft=4;spacingRight=4;overflow=hidden;rotatable=0;points=[[0,0.5],[1,0.5]];portConstraint=eastwest;whiteSpace=wrap;html=1;labelBackgroundColor=none;" parent="V9heyApbQKxrbfZ2U7eS-78" vertex="1">
          <mxGeometry y="86" width="280" height="26" as="geometry" />
        </mxCell>
        <mxCell id="V9heyApbQKxrbfZ2U7eS-83" value="mentor" style="swimlane;fontStyle=1;align=center;verticalAlign=top;childLayout=stackLayout;horizontal=1;startSize=26;horizontalStack=0;resizeParent=1;resizeParentMax=0;resizeLast=0;collapsible=1;marginBottom=0;whiteSpace=wrap;html=1;rounded=1;swimlaneLine=1;labelBackgroundColor=none;" parent="1" vertex="1">
          <mxGeometry x="481" y="-205" width="280" height="112" as="geometry" />
        </mxCell>
        <mxCell id="V9heyApbQKxrbfZ2U7eS-84" value="&amp;nbsp; &amp;nbsp; &amp;nbsp; &amp;nbsp; &amp;nbsp; &amp;nbsp; &amp;nbsp; &amp;nbsp; &amp;nbsp; &amp;nbsp; &amp;nbsp; &amp;nbsp; &amp;nbsp; &amp;nbsp; &amp;nbsp; &amp;nbsp; &amp;nbsp; &amp;nbsp; &amp;nbsp; &amp;nbsp; &amp;nbsp; &amp;nbsp; &amp;nbsp; &amp;nbsp; &amp;nbsp; &amp;nbsp; &amp;nbsp; &amp;nbsp; &amp;nbsp; &amp;nbsp; &amp;nbsp; &amp;nbsp;" style="text;strokeColor=none;fillColor=none;align=left;verticalAlign=top;spacingLeft=4;spacingRight=4;overflow=hidden;rotatable=0;points=[[0,0.5],[1,0.5]];portConstraint=eastwest;whiteSpace=wrap;html=1;labelBackgroundColor=none;" parent="V9heyApbQKxrbfZ2U7eS-83" vertex="1">
          <mxGeometry y="26" width="280" height="26" as="geometry" />
        </mxCell>
        <mxCell id="V9heyApbQKxrbfZ2U7eS-85" value="" style="line;strokeWidth=1;fillColor=none;align=left;verticalAlign=middle;spacingTop=-1;spacingLeft=3;spacingRight=3;rotatable=0;labelPosition=right;points=[];portConstraint=eastwest;labelBackgroundColor=none;" parent="V9heyApbQKxrbfZ2U7eS-83" vertex="1">
          <mxGeometry y="52" width="280" height="8" as="geometry" />
        </mxCell>
        <mxCell id="V9heyApbQKxrbfZ2U7eS-86" value="do: izberiKomisija, promeniTema" style="text;strokeColor=none;fillColor=none;align=left;verticalAlign=top;spacingLeft=4;spacingRight=4;overflow=hidden;rotatable=0;points=[[0,0.5],[1,0.5]];portConstraint=eastwest;whiteSpace=wrap;html=1;labelBackgroundColor=none;" parent="V9heyApbQKxrbfZ2U7eS-83" vertex="1">
          <mxGeometry y="60" width="280" height="26" as="geometry" />
        </mxCell>
        <mxCell id="V9heyApbQKxrbfZ2U7eS-87" value="&lt;div&gt;entry: prikaziProfesori&lt;/div&gt;" style="text;strokeColor=none;fillColor=none;align=left;verticalAlign=top;spacingLeft=4;spacingRight=4;overflow=hidden;rotatable=0;points=[[0,0.5],[1,0.5]];portConstraint=eastwest;whiteSpace=wrap;html=1;labelBackgroundColor=none;" parent="V9heyApbQKxrbfZ2U7eS-83" vertex="1">
          <mxGeometry y="86" width="280" height="26" as="geometry" />
        </mxCell>
        <mxCell id="V9heyApbQKxrbfZ2U7eS-88" style="edgeStyle=none;curved=1;rounded=0;orthogonalLoop=1;jettySize=auto;html=1;exitX=1;exitY=0.5;exitDx=0;exitDy=0;entryX=-0.004;entryY=-0.135;entryDx=0;entryDy=0;entryPerimeter=0;fontSize=12;startSize=8;endSize=8;" parent="1" source="V9heyApbQKxrbfZ2U7eS-72" target="V9heyApbQKxrbfZ2U7eS-86" edge="1">
          <mxGeometry relative="1" as="geometry" />
        </mxCell>
        <mxCell id="V9heyApbQKxrbfZ2U7eS-89" style="edgeStyle=none;curved=1;rounded=0;orthogonalLoop=1;jettySize=auto;html=1;exitX=1;exitY=0.5;exitDx=0;exitDy=0;entryX=0.005;entryY=1.087;entryDx=0;entryDy=0;entryPerimeter=0;fontSize=12;startSize=8;endSize=8;" parent="1" source="V9heyApbQKxrbfZ2U7eS-74" target="V9heyApbQKxrbfZ2U7eS-79" edge="1">
          <mxGeometry relative="1" as="geometry" />
        </mxCell>
        <mxCell id="V9heyApbQKxrbfZ2U7eS-90" value="ulogaProf = mentor" style="text;html=1;align=center;verticalAlign=middle;resizable=0;points=[];autosize=1;strokeColor=none;fillColor=none;fontSize=14;rotation=-45;" parent="1" vertex="1">
          <mxGeometry x="351" y="-143" width="143" height="26" as="geometry" />
        </mxCell>
        <mxCell id="V9heyApbQKxrbfZ2U7eS-91" value="ulogaProf = komisija" style="text;html=1;align=center;verticalAlign=middle;resizable=0;points=[];autosize=1;strokeColor=none;fillColor=none;fontSize=14;rotation=30;" parent="1" vertex="1">
          <mxGeometry x="351.5" y="-13" width="156" height="26" as="geometry" />
        </mxCell>
        <mxCell id="V9heyApbQKxrbfZ2U7eS-92" value="zakazhi branenje" style="swimlane;fontStyle=1;align=center;verticalAlign=top;childLayout=stackLayout;horizontal=1;startSize=26;horizontalStack=0;resizeParent=1;resizeParentMax=0;resizeLast=0;collapsible=1;marginBottom=0;whiteSpace=wrap;html=1;rounded=1;swimlaneLine=1;labelBackgroundColor=none;" parent="1" vertex="1">
          <mxGeometry x="481" y="845" width="280" height="112" as="geometry" />
        </mxCell>
        <mxCell id="V9heyApbQKxrbfZ2U7eS-93" value="&amp;nbsp; &amp;nbsp; &amp;nbsp; &amp;nbsp; &amp;nbsp; &amp;nbsp; &amp;nbsp; &amp;nbsp; &amp;nbsp; &amp;nbsp; &amp;nbsp; &amp;nbsp; &amp;nbsp; &amp;nbsp; &amp;nbsp; &amp;nbsp; &amp;nbsp;" style="text;strokeColor=none;fillColor=none;align=left;verticalAlign=top;spacingLeft=4;spacingRight=4;overflow=hidden;rotatable=0;points=[[0,0.5],[1,0.5]];portConstraint=eastwest;whiteSpace=wrap;html=1;labelBackgroundColor=none;" parent="V9heyApbQKxrbfZ2U7eS-92" vertex="1">
          <mxGeometry y="26" width="280" height="26" as="geometry" />
        </mxCell>
        <mxCell id="V9heyApbQKxrbfZ2U7eS-95" value="" style="line;strokeWidth=1;fillColor=none;align=left;verticalAlign=middle;spacingTop=-1;spacingLeft=3;spacingRight=3;rotatable=0;labelPosition=right;points=[];portConstraint=eastwest;labelBackgroundColor=none;" parent="V9heyApbQKxrbfZ2U7eS-92" vertex="1">
          <mxGeometry y="52" width="280" height="8" as="geometry" />
        </mxCell>
        <mxCell id="V9heyApbQKxrbfZ2U7eS-96" value="do: zakazhiDatum" style="text;strokeColor=none;fillColor=none;align=left;verticalAlign=top;spacingLeft=4;spacingRight=4;overflow=hidden;rotatable=0;points=[[0,0.5],[1,0.5]];portConstraint=eastwest;whiteSpace=wrap;html=1;labelBackgroundColor=none;" parent="V9heyApbQKxrbfZ2U7eS-92" vertex="1">
          <mxGeometry y="60" width="280" height="26" as="geometry" />
        </mxCell>
        <mxCell id="V9heyApbQKxrbfZ2U7eS-97" value="entry: prikaziDatumi" style="text;strokeColor=none;fillColor=none;align=left;verticalAlign=top;spacingLeft=4;spacingRight=4;overflow=hidden;rotatable=0;points=[[0,0.5],[1,0.5]];portConstraint=eastwest;whiteSpace=wrap;html=1;labelBackgroundColor=none;" parent="V9heyApbQKxrbfZ2U7eS-92" vertex="1">
          <mxGeometry y="86" width="280" height="26" as="geometry" />
        </mxCell>
        <mxCell id="V9heyApbQKxrbfZ2U7eS-98" value="" style="edgeStyle=orthogonalEdgeStyle;html=1;verticalAlign=bottom;endArrow=open;endSize=8;rounded=0;fontFamily=Helvetica;fontSize=12;fontColor=default;fontStyle=1;labelBackgroundColor=none;" parent="1" edge="1">
          <mxGeometry relative="1" as="geometry">
            <mxPoint x="611" y="840" as="targetPoint" />
            <mxPoint x="611" y="749" as="sourcePoint" />
          </mxGeometry>
        </mxCell>
        <mxCell id="V9heyApbQKxrbfZ2U7eS-99" value="" style="ellipse;html=1;shape=endState;fillColor=#000000;strokeColor=default;" parent="1" vertex="1">
          <mxGeometry x="606" y="1001" width="30" height="30" as="geometry" />
        </mxCell>
        <mxCell id="V9heyApbQKxrbfZ2U7eS-100" style="edgeStyle=none;curved=1;rounded=0;orthogonalLoop=1;jettySize=auto;html=1;fontSize=12;startSize=8;endSize=8;" parent="1" target="V9heyApbQKxrbfZ2U7eS-99" edge="1">
          <mxGeometry relative="1" as="geometry">
            <mxPoint x="621" y="962" as="sourcePoint" />
          </mxGeometry>
        </mxCell>
        <mxCell id="V9heyApbQKxrbfZ2U7eS-102" value="izbor komisja" style="swimlane;fontStyle=1;align=center;verticalAlign=top;childLayout=stackLayout;horizontal=1;startSize=26;horizontalStack=0;resizeParent=1;resizeParentMax=0;resizeLast=0;collapsible=1;marginBottom=0;whiteSpace=wrap;html=1;rounded=1;swimlaneLine=1;labelBackgroundColor=none;" parent="1" vertex="1">
          <mxGeometry x="884" y="-205" width="280" height="86" as="geometry" />
        </mxCell>
        <mxCell id="V9heyApbQKxrbfZ2U7eS-103" value="&amp;nbsp; &amp;nbsp; &amp;nbsp; &amp;nbsp; &amp;nbsp; &amp;nbsp; &amp;nbsp; &amp;nbsp; &amp;nbsp; &amp;nbsp; &amp;nbsp; &amp;nbsp; &amp;nbsp; &amp;nbsp; &amp;nbsp; &amp;nbsp; &amp;nbsp; &amp;nbsp; &amp;nbsp; &amp;nbsp; &amp;nbsp; &amp;nbsp; &amp;nbsp; &amp;nbsp; &amp;nbsp; &amp;nbsp; &amp;nbsp; &amp;nbsp; &amp;nbsp; &amp;nbsp; &amp;nbsp; &amp;nbsp;" style="text;strokeColor=none;fillColor=none;align=left;verticalAlign=top;spacingLeft=4;spacingRight=4;overflow=hidden;rotatable=0;points=[[0,0.5],[1,0.5]];portConstraint=eastwest;whiteSpace=wrap;html=1;labelBackgroundColor=none;" parent="V9heyApbQKxrbfZ2U7eS-102" vertex="1">
          <mxGeometry y="26" width="280" height="26" as="geometry" />
        </mxCell>
        <mxCell id="V9heyApbQKxrbfZ2U7eS-104" value="" style="line;strokeWidth=1;fillColor=none;align=left;verticalAlign=middle;spacingTop=-1;spacingLeft=3;spacingRight=3;rotatable=0;labelPosition=right;points=[];portConstraint=eastwest;labelBackgroundColor=none;" parent="V9heyApbQKxrbfZ2U7eS-102" vertex="1">
          <mxGeometry y="52" width="280" height="8" as="geometry" />
        </mxCell>
        <mxCell id="V9heyApbQKxrbfZ2U7eS-106" value="&lt;div&gt;entry:&lt;/div&gt;" style="text;strokeColor=none;fillColor=none;align=left;verticalAlign=top;spacingLeft=4;spacingRight=4;overflow=hidden;rotatable=0;points=[[0,0.5],[1,0.5]];portConstraint=eastwest;whiteSpace=wrap;html=1;labelBackgroundColor=none;" parent="V9heyApbQKxrbfZ2U7eS-102" vertex="1">
          <mxGeometry y="60" width="280" height="26" as="geometry" />
        </mxCell>
        <mxCell id="V9heyApbQKxrbfZ2U7eS-107" style="edgeStyle=none;curved=1;rounded=0;orthogonalLoop=1;jettySize=auto;html=1;exitX=1;exitY=0.5;exitDx=0;exitDy=0;entryX=0;entryY=0.5;entryDx=0;entryDy=0;fontSize=12;startSize=8;endSize=8;" parent="1" source="V9heyApbQKxrbfZ2U7eS-86" edge="1">
          <mxGeometry relative="1" as="geometry">
            <mxPoint x="884" y="-132" as="targetPoint" />
          </mxGeometry>
        </mxCell>
        <mxCell id="V9heyApbQKxrbfZ2U7eS-108" style="edgeStyle=none;curved=1;rounded=0;orthogonalLoop=1;jettySize=auto;html=1;exitX=0.955;exitY=1.117;exitDx=0;exitDy=0;entryX=1;entryY=0.5;entryDx=0;entryDy=0;fontSize=12;startSize=8;endSize=8;exitPerimeter=0;" parent="1" source="V9heyApbQKxrbfZ2U7eS-106" target="V9heyApbQKxrbfZ2U7eS-96" edge="1">
          <mxGeometry relative="1" as="geometry">
            <mxPoint x="1314.96" y="-93" as="sourcePoint" />
            <mxPoint x="910" y="999.8920000000003" as="targetPoint" />
          </mxGeometry>
        </mxCell>
      </root>
    </mxGraphModel>
  </diagram>
</mxfile>
